<svg width="137" height="137" viewBox="0 0 137 137" fill="none" xmlns="http://www.w3.org/2000/svg">
<path d="M68.7969 136.437C106.395 136.437 136.874 105.958 136.874 68.3599C136.874 30.7622 106.395 0.283203 68.7969 0.283203C31.1992 0.283203 0.720215 30.7622 0.720215 68.3599C0.720215 105.958 31.1992 136.437 68.7969 136.437Z" fill="#1E4FAD"/>
<path fill-rule="evenodd" clip-rule="evenodd" d="M77.555 43.0783C80.0336 43.0232 82.5121 43.0783 84.9906 43.0783H86.0371V30.1899C84.7152 30.0798 83.3383 29.8595 81.9613 29.8044C79.4277 29.6942 76.8941 29.5841 74.3605 29.6392C70.505 29.6942 66.8148 30.6856 63.6203 32.9439C59.93 35.5876 57.9472 39.3329 57.1761 43.6841C56.8456 45.5017 56.7906 47.3744 56.7355 49.1919C56.6804 52.056 56.7355 54.9751 56.7355 57.8392V58.9408H44.3979V73.3162H56.6253V109.503H71.6066V73.3713H83.834C84.4398 68.5795 85.0457 63.8427 85.7066 58.9408C84.7152 58.9408 83.834 58.9408 82.9527 58.9408C79.4828 58.9408 71.4964 58.9408 71.4964 58.9408C71.4964 58.9408 71.4964 51.8357 71.6066 48.6962C71.7168 44.4552 74.2504 43.1884 77.6101 43.0232L77.555 43.0783Z" fill="white"/>
</svg>
