<svg width="137" height="137" viewBox="0 0 137 137" fill="none" xmlns="http://www.w3.org/2000/svg">
<path d="M68.1724 136.437C105.77 136.437 136.249 105.958 136.249 68.3599C136.249 30.7622 105.77 0.283203 68.1724 0.283203C30.5747 0.283203 0.0957031 30.7622 0.0957031 68.3599C0.0957031 105.958 30.5747 136.437 68.1724 136.437Z" fill="url(#paint0_linear_82_279)"/>
<path d="M104.36 50.5143C103.864 45.7776 102.046 41.5917 98.5214 38.2319C94.8311 34.7069 90.2596 33.1096 85.3026 32.8893C76.8205 32.4487 56.717 32.1182 49.6119 33.2748C41.5154 34.5967 36.2279 39.2784 34.0248 47.2647C32.3173 53.3784 32.6478 81.6886 33.6392 87.7472C35.0162 96.064 39.9181 101.352 48.1248 103.5C53.7978 104.987 81.7776 104.766 88.0565 103.775C96.3733 102.453 101.716 97.5511 103.864 89.3445C105.516 83.0656 104.91 56.2425 104.36 50.5694V50.5143ZM97.6952 86.5355C96.7038 92.8144 92.5729 96.725 86.2389 97.441C80.4006 98.1019 54.4588 98.4324 49.0611 96.9453C43.8838 95.5132 40.9646 91.9332 40.0834 86.7558C39.2572 81.7988 39.0369 57.0136 40.0834 50.3491C41.0197 44.1253 45.2056 40.2147 51.4846 39.4987C57.8736 38.7827 80.8413 38.7276 87.01 39.6639C93.2889 40.6553 97.1995 44.8413 97.8604 51.1753C98.5214 57.0686 98.6866 80.2015 97.6952 86.5906V86.5355ZM68.8893 49.9635C58.6998 49.9635 50.383 58.2253 50.383 68.4698C50.383 78.6593 58.6447 86.9761 68.8893 86.9761C79.1338 86.9761 87.3956 78.7144 87.3956 68.4698C87.3956 58.2804 79.1338 49.9635 68.8893 49.9635ZM68.7791 80.4218C62.1697 80.3667 56.8822 74.9691 56.9373 68.3597C56.9924 61.7503 62.39 56.4628 68.9994 56.5179C75.6088 56.5729 80.8963 61.9706 80.8413 68.58C80.7862 75.1894 75.3885 80.4769 68.7791 80.4218ZM92.4628 49.3026C92.4628 51.671 90.535 53.6538 88.1116 53.5987C85.7432 53.5987 83.7604 51.671 83.8155 49.2475C83.8155 46.8792 85.7432 44.8963 88.1667 44.9514C90.535 44.9514 92.5179 46.8792 92.4628 49.3026Z" fill="white"/>
<path d="M104.36 50.5143C103.864 45.7776 102.046 41.5917 98.5214 38.2319C94.8311 34.7069 90.2596 33.1096 85.3026 32.8893C76.8205 32.4487 56.717 32.1182 49.6119 33.2748C41.5154 34.5967 36.2279 39.2784 34.0248 47.2647C32.3173 53.3784 32.6478 81.6886 33.6392 87.7472C35.0162 96.064 39.9181 101.352 48.1248 103.5C53.7978 104.987 81.7776 104.766 88.0565 103.775C96.3733 102.453 101.716 97.5511 103.864 89.3445C105.516 83.0656 104.91 56.2425 104.36 50.5694V50.5143ZM97.6952 86.5355C96.7038 92.8144 92.5729 96.725 86.2389 97.441C80.4006 98.1019 54.4588 98.4324 49.0611 96.9453C43.8838 95.5132 40.9646 91.9332 40.0834 86.7558C39.2572 81.7988 39.0369 57.0136 40.0834 50.3491C41.0197 44.1253 45.2056 40.2147 51.4846 39.4987C57.8736 38.7827 80.8413 38.7276 87.01 39.6639C93.2889 40.6553 97.1995 44.8413 97.8604 51.1753C98.5214 57.0686 98.6866 80.2015 97.6952 86.5906V86.5355ZM68.8893 49.9635C58.6998 49.9635 50.383 58.2253 50.383 68.4698C50.383 78.6593 58.6447 86.9761 68.8893 86.9761C79.1338 86.9761 87.3956 78.7144 87.3956 68.4698C87.3956 58.2804 79.1338 49.9635 68.8893 49.9635ZM68.7791 80.4218C62.1697 80.3667 56.8822 74.9691 56.9373 68.3597C56.9924 61.7503 62.39 56.4628 68.9994 56.5179C75.6088 56.5729 80.8963 61.9706 80.8413 68.58C80.7862 75.1894 75.3885 80.4769 68.7791 80.4218ZM92.4628 49.3026C92.4628 51.671 90.535 53.6538 88.1116 53.5987C85.7432 53.5987 83.7604 51.671 83.8155 49.2475C83.8155 46.8792 85.7432 44.8963 88.1667 44.9514C90.535 44.9514 92.5179 46.8792 92.4628 49.3026Z" fill="white"/>
<defs>
<linearGradient id="paint0_linear_82_279" x1="134.597" y1="-13.4313" x2="25.5969" y2="120.849" gradientUnits="userSpaceOnUse">
<stop offset="0.01" stop-color="#3542E0"/>
<stop offset="0.17" stop-color="#3741DE"/>
<stop offset="0.27" stop-color="#3F3FDA"/>
<stop offset="0.36" stop-color="#4E3CD2"/>
<stop offset="0.43" stop-color="#6237C7"/>
<stop offset="0.5" stop-color="#7D31B9"/>
<stop offset="0.56" stop-color="#9D29A7"/>
<stop offset="0.62" stop-color="#C82091"/>
<stop offset="0.76" stop-color="#F62B37"/>
<stop offset="1" stop-color="#FFC658"/>
</linearGradient>
</defs>
</svg>
