<svg width="137" height="137" viewBox="0 0 137 137" fill="none" xmlns="http://www.w3.org/2000/svg">
<path d="M68.5479 136.437C106.146 136.437 136.625 105.958 136.625 68.3599C136.625 30.7622 106.146 0.283203 68.5479 0.283203C30.9502 0.283203 0.471191 30.7622 0.471191 68.3599C0.471191 105.958 30.9502 136.437 68.5479 136.437Z" fill="#007AB5"/>
<path d="M39.4658 54.1485H53.2905V98.5415H39.4658V54.1485ZM46.3506 32.1172C50.7568 32.1172 54.3369 35.6973 54.3369 40.1035C54.3369 44.5098 50.7568 48.0899 46.3506 48.0899C41.9443 48.0899 38.3643 44.5098 38.3643 40.1035C38.3643 35.6973 41.9443 32.1172 46.3506 32.1172Z" fill="white"/>
<path d="M61.9395 54.1504H75.1582V60.209H75.3235C77.1961 56.7391 81.6574 53.0488 88.377 53.0488C102.367 53.0488 104.9 62.2469 104.9 74.1989V98.5435H91.1309V76.9528C91.1309 71.7754 91.0208 65.166 83.9707 65.166C76.9207 65.166 75.709 70.784 75.709 76.5672V98.5435H61.9395V54.1504Z" fill="white"/>
</svg>
