<svg width="137" height="137" viewBox="0 0 137 137" fill="none" xmlns="http://www.w3.org/2000/svg">
<path d="M68.9234 136.437C106.521 136.437 137 105.958 137 68.3599C137 30.7622 106.521 0.283203 68.9234 0.283203C31.3257 0.283203 0.84668 30.7622 0.84668 68.3599C0.84668 105.958 31.3257 136.437 68.9234 136.437Z" fill="#FD3832"/>
<path fill-rule="evenodd" clip-rule="evenodd" d="M40.5018 91.9899C37.803 91.1086 35.9854 89.3461 34.994 86.6473C32.6256 80.093 31.9095 52.7191 36.481 47.3214C38.0232 45.5038 40.0612 44.4023 42.4846 44.1269C54.8222 42.805 92.9913 42.9702 97.3976 44.5675C99.9862 45.5038 101.804 47.1562 102.795 49.7448C105.384 56.5195 105.494 81.1394 102.465 87.6387C101.639 89.4012 100.317 90.668 98.6093 91.5492C93.9827 93.9727 46.6155 93.9176 40.5569 91.9348L40.5018 91.9899ZM60.1096 79.1566C67.5452 75.3012 74.8706 71.5008 82.3612 67.6453C74.8706 63.7347 67.5452 59.9343 60.1096 56.0238V79.1566Z" fill="white"/>
</svg>
